<?xml version="1.0" encoding="utf-8"?>
<!-- Generator: Adobe Illustrator 24.0.3, SVG Export Plug-In . SVG Version: 6.00 Build 0)  -->
<svg xmlns="http://www.w3.org/2000/svg" xmlns:xlink="http://www.w3.org/1999/xlink" version="1.1" x="0px" y="0px" viewBox="0 0 600 600" style="enable-background:new 0 0 600 600;" xml:space="preserve">
<style type="text/css">
	.st0{fill:#373150;}
	.st1{fill:#5F5A74;}
	.st2{fill:#006e46;}
	.st3{fill:#1A8860;}
	.st4{fill:#006139;}
	.st5{fill:#00552D;}
	.st6{fill:#AFADB9;}
	.st7{fill:#878397;}
	.st8{fill:#A5A2B1;}
	.st9{fill:#534E69;}
	.st10{fill:#79758A;}
	.st11{display:none;}
	.st12{display:inline;}
	.st13{fill:none;stroke:#FF00FF;stroke-width:2;stroke-miterlimit:10;}
</style>
<g id="Dark_background">
	<rect x="-10" y="-10" class="st0" width="620" height="620"/>
</g>
<g id="Layer_5">
</g>
<g id="Shadows">
</g>
<g id="Pattern">
	<g>
		<polygon class="st1" points="182.5,59.5 182.5,57.5 180.5,57.5 180.5,58.8 179.5,58.8 179.5,57.5 177.5,57.5 177.5,59.5     178.8,59.5 178.8,60.5 177.5,60.5 177.5,62.5 179.5,62.5 179.5,61.2 180.5,61.2 180.5,62.5 182.5,62.5 182.5,60.5 181.2,60.5     181.2,59.5   "/>
		<polygon class="st1" points="222.5,59.5 222.5,57.5 220.5,57.5 220.5,58.8 219.5,58.8 219.5,57.5 217.5,57.5 217.5,59.5     218.8,59.5 218.8,60.5 217.5,60.5 217.5,62.5 219.5,62.5 219.5,61.2 220.5,61.2 220.5,62.5 222.5,62.5 222.5,60.5 221.2,60.5     221.2,59.5   "/>
		<polygon class="st1" points="342.5,59.5 342.5,57.5 340.5,57.5 340.5,58.8 339.5,58.8 339.5,57.5 337.5,57.5 337.5,59.5     338.8,59.5 338.8,60.5 337.5,60.5 337.5,62.5 339.5,62.5 339.5,61.2 340.5,61.2 340.5,62.5 342.5,62.5 342.5,60.5 341.2,60.5     341.2,59.5   "/>
		<polygon class="st1" points="422.5,59.5 422.5,57.5 420.5,57.5 420.5,58.8 419.5,58.8 419.5,57.5 417.5,57.5 417.5,59.5     418.8,59.5 418.8,60.5 417.5,60.5 417.5,62.5 419.5,62.5 419.5,61.2 420.5,61.2 420.5,62.5 422.5,62.5 422.5,60.5 421.2,60.5     421.2,59.5   "/>
		<polygon class="st1" points="82.5,79.5 82.5,77.5 80.5,77.5 80.5,78.8 79.5,78.8 79.5,77.5 77.5,77.5 77.5,79.5 78.8,79.5     78.8,80.5 77.5,80.5 77.5,82.5 79.5,82.5 79.5,81.2 80.5,81.2 80.5,82.5 82.5,82.5 82.5,80.5 81.2,80.5 81.2,79.5   "/>
		<polygon class="st1" points="122.5,79.5 122.5,77.5 120.5,77.5 120.5,78.8 119.5,78.8 119.5,77.5 117.5,77.5 117.5,79.5     118.8,79.5 118.8,80.5 117.5,80.5 117.5,82.5 119.5,82.5 119.5,81.2 120.5,81.2 120.5,82.5 122.5,82.5 122.5,80.5 121.2,80.5     121.2,79.5   "/>
		<polygon class="st1" points="202.5,79.5 202.5,77.5 200.5,77.5 200.5,78.8 199.5,78.8 199.5,77.5 197.5,77.5 197.5,79.5     198.8,79.5 198.8,80.5 197.5,80.5 197.5,82.5 199.5,82.5 199.5,81.2 200.5,81.2 200.5,82.5 202.5,82.5 202.5,80.5 201.2,80.5     201.2,79.5   "/>
		<polygon class="st1" points="242.5,79.5 242.5,77.5 240.5,77.5 240.5,78.8 239.5,78.8 239.5,77.5 237.5,77.5 237.5,79.5     238.8,79.5 238.8,80.5 237.5,80.5 237.5,82.5 239.5,82.5 239.5,81.2 240.5,81.2 240.5,82.5 242.5,82.5 242.5,80.5 241.2,80.5     241.2,79.5   "/>
		<polygon class="st1" points="322.5,79.5 322.5,77.5 320.5,77.5 320.5,78.8 319.5,78.8 319.5,77.5 317.5,77.5 317.5,79.5     318.8,79.5 318.8,80.5 317.5,80.5 317.5,82.5 319.5,82.5 319.5,81.2 320.5,81.2 320.5,82.5 322.5,82.5 322.5,80.5 321.2,80.5     321.2,79.5   "/>
		<polygon class="st1" points="402.5,79.5 402.5,77.5 400.5,77.5 400.5,78.8 399.5,78.8 399.5,77.5 397.5,77.5 397.5,79.5     398.8,79.5 398.8,80.5 397.5,80.5 397.5,82.5 399.5,82.5 399.5,81.2 400.5,81.2 400.5,82.5 402.5,82.5 402.5,80.5 401.2,80.5     401.2,79.5   "/>
		<polygon class="st1" points="442.5,79.5 442.5,77.5 440.5,77.5 440.5,78.8 439.5,78.8 439.5,77.5 437.5,77.5 437.5,79.5     438.8,79.5 438.8,80.5 437.5,80.5 437.5,82.5 439.5,82.5 439.5,81.2 440.5,81.2 440.5,82.5 442.5,82.5 442.5,80.5 441.2,80.5     441.2,79.5   "/>
		<polygon class="st1" points="82.5,119.5 82.5,117.5 80.5,117.5 80.5,118.8 79.5,118.8 79.5,117.5 77.5,117.5 77.5,119.5     78.8,119.5 78.8,120.5 77.5,120.5 77.5,122.5 79.5,122.5 79.5,121.2 80.5,121.2 80.5,122.5 82.5,122.5 82.5,120.5 81.2,120.5     81.2,119.5   "/>
		<polygon class="st1" points="122.5,119.5 122.5,117.5 120.5,117.5 120.5,118.8 119.5,118.8 119.5,117.5 117.5,117.5 117.5,119.5     118.8,119.5 118.8,120.5 117.5,120.5 117.5,122.5 119.5,122.5 119.5,121.2 120.5,121.2 120.5,122.5 122.5,122.5 122.5,120.5     121.2,120.5 121.2,119.5   "/>
		<polygon class="st1" points="162.5,119.5 162.5,117.5 160.5,117.5 160.5,118.8 159.5,118.8 159.5,117.5 157.5,117.5 157.5,119.5     158.8,119.5 158.8,120.5 157.5,120.5 157.5,122.5 159.5,122.5 159.5,121.2 160.5,121.2 160.5,122.5 162.5,122.5 162.5,120.5     161.2,120.5 161.2,119.5   "/>
		<polygon class="st1" points="202.5,119.5 202.5,117.5 200.5,117.5 200.5,118.8 199.5,118.8 199.5,117.5 197.5,117.5 197.5,119.5     198.8,119.5 198.8,120.5 197.5,120.5 197.5,122.5 199.5,122.5 199.5,121.2 200.5,121.2 200.5,122.5 202.5,122.5 202.5,120.5     201.2,120.5 201.2,119.5   "/>
		<polygon class="st1" points="242.5,119.5 242.5,117.5 240.5,117.5 240.5,118.8 239.5,118.8 239.5,117.5 237.5,117.5 237.5,119.5     238.8,119.5 238.8,120.5 237.5,120.5 237.5,122.5 239.5,122.5 239.5,121.2 240.5,121.2 240.5,122.5 242.5,122.5 242.5,120.5     241.2,120.5 241.2,119.5   "/>
		<polygon class="st1" points="282.5,119.5 282.5,117.5 280.5,117.5 280.5,118.8 279.5,118.8 279.5,117.5 277.5,117.5 277.5,119.5     278.8,119.5 278.8,120.5 277.5,120.5 277.5,122.5 279.5,122.5 279.5,121.2 280.5,121.2 280.5,122.5 282.5,122.5 282.5,120.5     281.2,120.5 281.2,119.5   "/>
		<polygon class="st1" points="322.5,119.5 322.5,117.5 320.5,117.5 320.5,118.8 319.5,118.8 319.5,117.5 317.5,117.5 317.5,119.5     318.8,119.5 318.8,120.5 317.5,120.5 317.5,122.5 319.5,122.5 319.5,121.2 320.5,121.2 320.5,122.5 322.5,122.5 322.5,120.5     321.2,120.5 321.2,119.5   "/>
		<polygon class="st1" points="362.5,119.5 362.5,117.5 360.5,117.5 360.5,118.8 359.5,118.8 359.5,117.5 357.5,117.5 357.5,119.5     358.8,119.5 358.8,120.5 357.5,120.5 357.5,122.5 359.5,122.5 359.5,121.2 360.5,121.2 360.5,122.5 362.5,122.5 362.5,120.5     361.2,120.5 361.2,119.5   "/>
		<polygon class="st1" points="402.5,119.5 402.5,117.5 400.5,117.5 400.5,118.8 399.5,118.8 399.5,117.5 397.5,117.5 397.5,119.5     398.8,119.5 398.8,120.5 397.5,120.5 397.5,122.5 399.5,122.5 399.5,121.2 400.5,121.2 400.5,122.5 402.5,122.5 402.5,120.5     401.2,120.5 401.2,119.5   "/>
		<polygon class="st1" points="442.5,119.5 442.5,117.5 440.5,117.5 440.5,118.8 439.5,118.8 439.5,117.5 437.5,117.5 437.5,119.5     438.8,119.5 438.8,120.5 437.5,120.5 437.5,122.5 439.5,122.5 439.5,121.2 440.5,121.2 440.5,122.5 442.5,122.5 442.5,120.5     441.2,120.5 441.2,119.5   "/>
		<polygon class="st1" points="82.5,159.5 82.5,157.5 80.5,157.5 80.5,158.8 79.5,158.8 79.5,157.5 77.5,157.5 77.5,159.5     78.8,159.5 78.8,160.5 77.5,160.5 77.5,162.5 79.5,162.5 79.5,161.2 80.5,161.2 80.5,162.5 82.5,162.5 82.5,160.5 81.2,160.5     81.2,159.5   "/>
		<polygon class="st1" points="122.5,159.5 122.5,157.5 120.5,157.5 120.5,158.8 119.5,158.8 119.5,157.5 117.5,157.5 117.5,159.5     118.8,159.5 118.8,160.5 117.5,160.5 117.5,162.5 119.5,162.5 119.5,161.2 120.5,161.2 120.5,162.5 122.5,162.5 122.5,160.5     121.2,160.5 121.2,159.5   "/>
		<polygon class="st1" points="242.5,159.5 242.5,157.5 240.5,157.5 240.5,158.8 239.5,158.8 239.5,157.5 237.5,157.5 237.5,159.5     238.8,159.5 238.8,160.5 237.5,160.5 237.5,162.5 239.5,162.5 239.5,161.2 240.5,161.2 240.5,162.5 242.5,162.5 242.5,160.5     241.2,160.5 241.2,159.5   "/>
		<polygon class="st1" points="282.5,159.5 282.5,157.5 280.5,157.5 280.5,158.8 279.5,158.8 279.5,157.5 277.5,157.5 277.5,159.5     278.8,159.5 278.8,160.5 277.5,160.5 277.5,162.5 279.5,162.5 279.5,161.2 280.5,161.2 280.5,162.5 282.5,162.5 282.5,160.5     281.2,160.5 281.2,159.5   "/>
		<polygon class="st1" points="322.5,159.5 322.5,157.5 320.5,157.5 320.5,158.8 319.5,158.8 319.5,157.5 317.5,157.5 317.5,159.5     318.8,159.5 318.8,160.5 317.5,160.5 317.5,162.5 319.5,162.5 319.5,161.2 320.5,161.2 320.5,162.5 322.5,162.5 322.5,160.5     321.2,160.5 321.2,159.5   "/>
		<polygon class="st1" points="82.5,199.5 82.5,197.5 80.5,197.5 80.5,198.8 79.5,198.8 79.5,197.5 77.5,197.5 77.5,199.5     78.8,199.5 78.8,200.5 77.5,200.5 77.5,202.5 79.5,202.5 79.5,201.2 80.5,201.2 80.5,202.5 82.5,202.5 82.5,200.5 81.2,200.5     81.2,199.5   "/>
		<polygon class="st1" points="122.5,199.5 122.5,197.5 120.5,197.5 120.5,198.8 119.5,198.8 119.5,197.5 117.5,197.5 117.5,199.5     118.8,199.5 118.8,200.5 117.5,200.5 117.5,202.5 119.5,202.5 119.5,201.2 120.5,201.2 120.5,202.5 122.5,202.5 122.5,200.5     121.2,200.5 121.2,199.5   "/>
		<polygon class="st1" points="82.5,239.5 82.5,237.5 80.5,237.5 80.5,238.8 79.5,238.8 79.5,237.5 77.5,237.5 77.5,239.5     78.8,239.5 78.8,240.5 77.5,240.5 77.5,242.5 79.5,242.5 79.5,241.2 80.5,241.2 80.5,242.5 82.5,242.5 82.5,240.5 81.2,240.5     81.2,239.5   "/>
		<polygon class="st1" points="122.5,239.5 122.5,237.5 120.5,237.5 120.5,238.8 119.5,238.8 119.5,237.5 117.5,237.5 117.5,239.5     118.8,239.5 118.8,240.5 117.5,240.5 117.5,242.5 119.5,242.5 119.5,241.2 120.5,241.2 120.5,242.5 122.5,242.5 122.5,240.5     121.2,240.5 121.2,239.5   "/>
		<polygon class="st1" points="122.5,279.5 122.5,277.5 120.5,277.5 120.5,278.8 119.5,278.8 119.5,277.5 117.5,277.5 117.5,279.5     118.8,279.5 118.8,280.5 117.5,280.5 117.5,282.5 119.5,282.5 119.5,281.2 120.5,281.2 120.5,282.5 122.5,282.5 122.5,280.5     121.2,280.5 121.2,279.5   "/>
		<polygon class="st1" points="122.5,319.5 122.5,317.5 120.5,317.5 120.5,318.8 119.5,318.8 119.5,317.5 117.5,317.5 117.5,319.5     118.8,319.5 118.8,320.5 117.5,320.5 117.5,322.5 119.5,322.5 119.5,321.2 120.5,321.2 120.5,322.5 122.5,322.5 122.5,320.5     121.2,320.5 121.2,319.5   "/>
		<polygon class="st1" points="82.5,359.5 82.5,357.5 80.5,357.5 80.5,358.8 79.5,358.8 79.5,357.5 77.5,357.5 77.5,359.5     78.8,359.5 78.8,360.5 77.5,360.5 77.5,362.5 79.5,362.5 79.5,361.2 80.5,361.2 80.5,362.5 82.5,362.5 82.5,360.5 81.2,360.5     81.2,359.5   "/>
		<polygon class="st1" points="122.5,359.5 122.5,357.5 120.5,357.5 120.5,358.8 119.5,358.8 119.5,357.5 117.5,357.5 117.5,359.5     118.8,359.5 118.8,360.5 117.5,360.5 117.5,362.5 119.5,362.5 119.5,361.2 120.5,361.2 120.5,362.5 122.5,362.5 122.5,360.5     121.2,360.5 121.2,359.5   "/>
		<polygon class="st1" points="102.5,99.5 102.5,97.5 100.5,97.5 100.5,98.8 99.5,98.8 99.5,97.5 97.5,97.5 97.5,99.5 98.8,99.5     98.8,100.5 97.5,100.5 97.5,102.5 99.5,102.5 99.5,101.2 100.5,101.2 100.5,102.5 102.5,102.5 102.5,100.5 101.2,100.5     101.2,99.5   "/>
		<polygon class="st1" points="182.5,99.5 182.5,97.5 180.5,97.5 180.5,98.8 179.5,98.8 179.5,97.5 177.5,97.5 177.5,99.5     178.8,99.5 178.8,100.5 177.5,100.5 177.5,102.5 179.5,102.5 179.5,101.2 180.5,101.2 180.5,102.5 182.5,102.5 182.5,100.5     181.2,100.5 181.2,99.5   "/>
		<polygon class="st1" points="222.5,99.5 222.5,97.5 220.5,97.5 220.5,98.8 219.5,98.8 219.5,97.5 217.5,97.5 217.5,99.5     218.8,99.5 218.8,100.5 217.5,100.5 217.5,102.5 219.5,102.5 219.5,101.2 220.5,101.2 220.5,102.5 222.5,102.5 222.5,100.5     221.2,100.5 221.2,99.5   "/>
		<polygon class="st1" points="262.5,99.5 262.5,97.5 260.5,97.5 260.5,98.8 259.5,98.8 259.5,97.5 257.5,97.5 257.5,99.5     258.8,99.5 258.8,100.5 257.5,100.5 257.5,102.5 259.5,102.5 259.5,101.2 260.5,101.2 260.5,102.5 262.5,102.5 262.5,100.5     261.2,100.5 261.2,99.5   "/>
		<polygon class="st1" points="302.5,99.5 302.5,97.5 300.5,97.5 300.5,98.8 299.5,98.8 299.5,97.5 297.5,97.5 297.5,99.5     298.8,99.5 298.8,100.5 297.5,100.5 297.5,102.5 299.5,102.5 299.5,101.2 300.5,101.2 300.5,102.5 302.5,102.5 302.5,100.5     301.2,100.5 301.2,99.5   "/>
		<polygon class="st1" points="342.5,99.5 342.5,97.5 340.5,97.5 340.5,98.8 339.5,98.8 339.5,97.5 337.5,97.5 337.5,99.5     338.8,99.5 338.8,100.5 337.5,100.5 337.5,102.5 339.5,102.5 339.5,101.2 340.5,101.2 340.5,102.5 342.5,102.5 342.5,100.5     341.2,100.5 341.2,99.5   "/>
		<polygon class="st1" points="422.5,99.5 422.5,97.5 420.5,97.5 420.5,98.8 419.5,98.8 419.5,97.5 417.5,97.5 417.5,99.5     418.8,99.5 418.8,100.5 417.5,100.5 417.5,102.5 419.5,102.5 419.5,101.2 420.5,101.2 420.5,102.5 422.5,102.5 422.5,100.5     421.2,100.5 421.2,99.5   "/>
		<polygon class="st1" points="102.5,139.5 102.5,137.5 100.5,137.5 100.5,138.8 99.5,138.8 99.5,137.5 97.5,137.5 97.5,139.5     98.8,139.5 98.8,140.5 97.5,140.5 97.5,142.5 99.5,142.5 99.5,141.2 100.5,141.2 100.5,142.5 102.5,142.5 102.5,140.5     101.2,140.5 101.2,139.5   "/>
		<polygon class="st1" points="222.5,139.5 222.5,137.5 220.5,137.5 220.5,138.8 219.5,138.8 219.5,137.5 217.5,137.5 217.5,139.5     218.8,139.5 218.8,140.5 217.5,140.5 217.5,142.5 219.5,142.5 219.5,141.2 220.5,141.2 220.5,142.5 222.5,142.5 222.5,140.5     221.2,140.5 221.2,139.5   "/>
		<polygon class="st1" points="262.5,139.5 262.5,137.5 260.5,137.5 260.5,138.8 259.5,138.8 259.5,137.5 257.5,137.5 257.5,139.5     258.8,139.5 258.8,140.5 257.5,140.5 257.5,142.5 259.5,142.5 259.5,141.2 260.5,141.2 260.5,142.5 262.5,142.5 262.5,140.5     261.2,140.5 261.2,139.5   "/>
		<polygon class="st1" points="302.5,139.5 302.5,137.5 300.5,137.5 300.5,138.8 299.5,138.8 299.5,137.5 297.5,137.5 297.5,139.5     298.8,139.5 298.8,140.5 297.5,140.5 297.5,142.5 299.5,142.5 299.5,141.2 300.5,141.2 300.5,142.5 302.5,142.5 302.5,140.5     301.2,140.5 301.2,139.5   "/>
		<polygon class="st1" points="342.5,139.5 342.5,137.5 340.5,137.5 340.5,138.8 339.5,138.8 339.5,137.5 337.5,137.5 337.5,139.5     338.8,139.5 338.8,140.5 337.5,140.5 337.5,142.5 339.5,142.5 339.5,141.2 340.5,141.2 340.5,142.5 342.5,142.5 342.5,140.5     341.2,140.5 341.2,139.5   "/>
		<polygon class="st1" points="422.5,139.5 422.5,137.5 420.5,137.5 420.5,138.8 419.5,138.8 419.5,137.5 417.5,137.5 417.5,139.5     418.8,139.5 418.8,140.5 417.5,140.5 417.5,142.5 419.5,142.5 419.5,141.2 420.5,141.2 420.5,142.5 422.5,142.5 422.5,140.5     421.2,140.5 421.2,139.5   "/>
		<polygon class="st1" points="462.5,139.5 462.5,137.5 460.5,137.5 460.5,138.8 459.5,138.8 459.5,137.5 457.5,137.5 457.5,139.5     458.8,139.5 458.8,140.5 457.5,140.5 457.5,142.5 459.5,142.5 459.5,141.2 460.5,141.2 460.5,142.5 462.5,142.5 462.5,140.5     461.2,140.5 461.2,139.5   "/>
		<polygon class="st1" points="62.5,179.5 62.5,177.5 60.5,177.5 60.5,178.8 59.5,178.8 59.5,177.5 57.5,177.5 57.5,179.5     58.8,179.5 58.8,180.5 57.5,180.5 57.5,182.5 59.5,182.5 59.5,181.2 60.5,181.2 60.5,182.5 62.5,182.5 62.5,180.5 61.2,180.5     61.2,179.5   "/>
		<polygon class="st1" points="102.5,179.5 102.5,177.5 100.5,177.5 100.5,178.8 99.5,178.8 99.5,177.5 97.5,177.5 97.5,179.5     98.8,179.5 98.8,180.5 97.5,180.5 97.5,182.5 99.5,182.5 99.5,181.2 100.5,181.2 100.5,182.5 102.5,182.5 102.5,180.5     101.2,180.5 101.2,179.5   "/>
		<polygon class="st1" points="262.5,179.5 262.5,177.5 260.5,177.5 260.5,178.8 259.5,178.8 259.5,177.5 257.5,177.5 257.5,179.5     258.8,179.5 258.8,180.5 257.5,180.5 257.5,182.5 259.5,182.5 259.5,181.2 260.5,181.2 260.5,182.5 262.5,182.5 262.5,180.5     261.2,180.5 261.2,179.5   "/>
		<polygon class="st1" points="302.5,179.5 302.5,177.5 300.5,177.5 300.5,178.8 299.5,178.8 299.5,177.5 297.5,177.5 297.5,179.5     298.8,179.5 298.8,180.5 297.5,180.5 297.5,182.5 299.5,182.5 299.5,181.2 300.5,181.2 300.5,182.5 302.5,182.5 302.5,180.5     301.2,180.5 301.2,179.5   "/>
		<polygon class="st1" points="342.5,179.5 342.5,177.5 340.5,177.5 340.5,178.8 339.5,178.8 339.5,177.5 337.5,177.5 337.5,179.5     338.8,179.5 338.8,180.5 337.5,180.5 337.5,182.5 339.5,182.5 339.5,181.2 340.5,181.2 340.5,182.5 342.5,182.5 342.5,180.5     341.2,180.5 341.2,179.5   "/>
		<polygon class="st1" points="62.5,219.5 62.5,217.5 60.5,217.5 60.5,218.8 59.5,218.8 59.5,217.5 57.5,217.5 57.5,219.5     58.8,219.5 58.8,220.5 57.5,220.5 57.5,222.5 59.5,222.5 59.5,221.2 60.5,221.2 60.5,222.5 62.5,222.5 62.5,220.5 61.2,220.5     61.2,219.5   "/>
		<polygon class="st1" points="102.5,219.5 102.5,217.5 100.5,217.5 100.5,218.8 99.5,218.8 99.5,217.5 97.5,217.5 97.5,219.5     98.8,219.5 98.8,220.5 97.5,220.5 97.5,222.5 99.5,222.5 99.5,221.2 100.5,221.2 100.5,222.5 102.5,222.5 102.5,220.5     101.2,220.5 101.2,219.5   "/>
		<polygon class="st1" points="102.5,259.5 102.5,257.5 100.5,257.5 100.5,258.8 99.5,258.8 99.5,257.5 97.5,257.5 97.5,259.5     98.8,259.5 98.8,260.5 97.5,260.5 97.5,262.5 99.5,262.5 99.5,261.2 100.5,261.2 100.5,262.5 102.5,262.5 102.5,260.5     101.2,260.5 101.2,259.5   "/>
		<polygon class="st1" points="102.5,299.5 102.5,297.5 100.5,297.5 100.5,298.8 99.5,298.8 99.5,297.5 97.5,297.5 97.5,299.5     98.8,299.5 98.8,300.5 97.5,300.5 97.5,302.5 99.5,302.5 99.5,301.2 100.5,301.2 100.5,302.5 102.5,302.5 102.5,300.5     101.2,300.5 101.2,299.5   "/>
		<polygon class="st1" points="62.5,339.5 62.5,337.5 60.5,337.5 60.5,338.8 59.5,338.8 59.5,337.5 57.5,337.5 57.5,339.5     58.8,339.5 58.8,340.5 57.5,340.5 57.5,342.5 59.5,342.5 59.5,341.2 60.5,341.2 60.5,342.5 62.5,342.5 62.5,340.5 61.2,340.5     61.2,339.5   "/>
		<polygon class="st1" points="102.5,339.5 102.5,337.5 100.5,337.5 100.5,338.8 99.5,338.8 99.5,337.5 97.5,337.5 97.5,339.5     98.8,339.5 98.8,340.5 97.5,340.5 97.5,342.5 99.5,342.5 99.5,341.2 100.5,341.2 100.5,342.5 102.5,342.5 102.5,340.5     101.2,340.5 101.2,339.5   "/>
		<polygon class="st1" points="102.5,379.5 102.5,377.5 100.5,377.5 100.5,378.8 99.5,378.8 99.5,377.5 97.5,377.5 97.5,379.5     98.8,379.5 98.8,380.5 97.5,380.5 97.5,382.5 99.5,382.5 99.5,381.2 100.5,381.2 100.5,382.5 102.5,382.5 102.5,380.5     101.2,380.5 101.2,379.5   "/>
		<polygon class="st1" points="82.5,479.5 82.5,477.5 80.5,477.5 80.5,478.8 79.5,478.8 79.5,477.5 77.5,477.5 77.5,479.5     78.8,479.5 78.8,480.5 77.5,480.5 77.5,482.5 79.5,482.5 79.5,481.2 80.5,481.2 80.5,482.5 82.5,482.5 82.5,480.5 81.2,480.5     81.2,479.5   "/>
		<polygon class="st1" points="122.5,479.5 122.5,477.5 120.5,477.5 120.5,478.8 119.5,478.8 119.5,477.5 117.5,477.5 117.5,479.5     118.8,479.5 118.8,480.5 117.5,480.5 117.5,482.5 119.5,482.5 119.5,481.2 120.5,481.2 120.5,482.5 122.5,482.5 122.5,480.5     121.2,480.5 121.2,479.5   "/>
		<polygon class="st1" points="162.5,479.5 162.5,477.5 160.5,477.5 160.5,478.8 159.5,478.8 159.5,477.5 157.5,477.5 157.5,479.5     158.8,479.5 158.8,480.5 157.5,480.5 157.5,482.5 159.5,482.5 159.5,481.2 160.5,481.2 160.5,482.5 162.5,482.5 162.5,480.5     161.2,480.5 161.2,479.5   "/>
		<polygon class="st1" points="202.5,479.5 202.5,477.5 200.5,477.5 200.5,478.8 199.5,478.8 199.5,477.5 197.5,477.5 197.5,479.5     198.8,479.5 198.8,480.5 197.5,480.5 197.5,482.5 199.5,482.5 199.5,481.2 200.5,481.2 200.5,482.5 202.5,482.5 202.5,480.5     201.2,480.5 201.2,479.5   "/>
		<polygon class="st1" points="242.5,479.5 242.5,477.5 240.5,477.5 240.5,478.8 239.5,478.8 239.5,477.5 237.5,477.5 237.5,479.5     238.8,479.5 238.8,480.5 237.5,480.5 237.5,482.5 239.5,482.5 239.5,481.2 240.5,481.2 240.5,482.5 242.5,482.5 242.5,480.5     241.2,480.5 241.2,479.5   "/>
		<polygon class="st1" points="282.5,479.5 282.5,477.5 280.5,477.5 280.5,478.8 279.5,478.8 279.5,477.5 277.5,477.5 277.5,479.5     278.8,479.5 278.8,480.5 277.5,480.5 277.5,482.5 279.5,482.5 279.5,481.2 280.5,481.2 280.5,482.5 282.5,482.5 282.5,480.5     281.2,480.5 281.2,479.5   "/>
		<polygon class="st1" points="322.5,479.5 322.5,477.5 320.5,477.5 320.5,478.8 319.5,478.8 319.5,477.5 317.5,477.5 317.5,479.5     318.8,479.5 318.8,480.5 317.5,480.5 317.5,482.5 319.5,482.5 319.5,481.2 320.5,481.2 320.5,482.5 322.5,482.5 322.5,480.5     321.2,480.5 321.2,479.5   "/>
		<polygon class="st1" points="362.5,479.5 362.5,477.5 360.5,477.5 360.5,478.8 359.5,478.8 359.5,477.5 357.5,477.5 357.5,479.5     358.8,479.5 358.8,480.5 357.5,480.5 357.5,482.5 359.5,482.5 359.5,481.2 360.5,481.2 360.5,482.5 362.5,482.5 362.5,480.5     361.2,480.5 361.2,479.5   "/>
		<polygon class="st1" points="402.5,479.5 402.5,477.5 400.5,477.5 400.5,478.8 399.5,478.8 399.5,477.5 397.5,477.5 397.5,479.5     398.8,479.5 398.8,480.5 397.5,480.5 397.5,482.5 399.5,482.5 399.5,481.2 400.5,481.2 400.5,482.5 402.5,482.5 402.5,480.5     401.2,480.5 401.2,479.5   "/>
		<polygon class="st1" points="442.5,479.5 442.5,477.5 440.5,477.5 440.5,478.8 439.5,478.8 439.5,477.5 437.5,477.5 437.5,479.5     438.8,479.5 438.8,480.5 437.5,480.5 437.5,482.5 439.5,482.5 439.5,481.2 440.5,481.2 440.5,482.5 442.5,482.5 442.5,480.5     441.2,480.5 441.2,479.5   "/>
		<polygon class="st1" points="122.5,519.5 122.5,517.5 120.5,517.5 120.5,518.8 119.5,518.8 119.5,517.5 117.5,517.5 117.5,519.5     118.8,519.5 118.8,520.5 117.5,520.5 117.5,522.5 119.5,522.5 119.5,521.2 120.5,521.2 120.5,522.5 122.5,522.5 122.5,520.5     121.2,520.5 121.2,519.5   "/>
		<polygon class="st1" points="162.5,519.5 162.5,517.5 160.5,517.5 160.5,518.8 159.5,518.8 159.5,517.5 157.5,517.5 157.5,519.5     158.8,519.5 158.8,520.5 157.5,520.5 157.5,522.5 159.5,522.5 159.5,521.2 160.5,521.2 160.5,522.5 162.5,522.5 162.5,520.5     161.2,520.5 161.2,519.5   "/>
		<polygon class="st1" points="242.5,519.5 242.5,517.5 240.5,517.5 240.5,518.8 239.5,518.8 239.5,517.5 237.5,517.5 237.5,519.5     238.8,519.5 238.8,520.5 237.5,520.5 237.5,522.5 239.5,522.5 239.5,521.2 240.5,521.2 240.5,522.5 242.5,522.5 242.5,520.5     241.2,520.5 241.2,519.5   "/>
		<polygon class="st1" points="322.5,519.5 322.5,517.5 320.5,517.5 320.5,518.8 319.5,518.8 319.5,517.5 317.5,517.5 317.5,519.5     318.8,519.5 318.8,520.5 317.5,520.5 317.5,522.5 319.5,522.5 319.5,521.2 320.5,521.2 320.5,522.5 322.5,522.5 322.5,520.5     321.2,520.5 321.2,519.5   "/>
		<polygon class="st1" points="362.5,519.5 362.5,517.5 360.5,517.5 360.5,518.8 359.5,518.8 359.5,517.5 357.5,517.5 357.5,519.5     358.8,519.5 358.8,520.5 357.5,520.5 357.5,522.5 359.5,522.5 359.5,521.2 360.5,521.2 360.5,522.5 362.5,522.5 362.5,520.5     361.2,520.5 361.2,519.5   "/>
		<polygon class="st1" points="402.5,519.5 402.5,517.5 400.5,517.5 400.5,518.8 399.5,518.8 399.5,517.5 397.5,517.5 397.5,519.5     398.8,519.5 398.8,520.5 397.5,520.5 397.5,522.5 399.5,522.5 399.5,521.2 400.5,521.2 400.5,522.5 402.5,522.5 402.5,520.5     401.2,520.5 401.2,519.5   "/>
		<polygon class="st1" points="442.5,519.5 442.5,517.5 440.5,517.5 440.5,518.8 439.5,518.8 439.5,517.5 437.5,517.5 437.5,519.5     438.8,519.5 438.8,520.5 437.5,520.5 437.5,522.5 439.5,522.5 439.5,521.2 440.5,521.2 440.5,522.5 442.5,522.5 442.5,520.5     441.2,520.5 441.2,519.5   "/>
		<polygon class="st1" points="62.5,499.5 62.5,497.5 60.5,497.5 60.5,498.8 59.5,498.8 59.5,497.5 57.5,497.5 57.5,499.5     58.8,499.5 58.8,500.5 57.5,500.5 57.5,502.5 59.5,502.5 59.5,501.2 60.5,501.2 60.5,502.5 62.5,502.5 62.5,500.5 61.2,500.5     61.2,499.5   "/>
		<polygon class="st1" points="102.5,499.5 102.5,497.5 100.5,497.5 100.5,498.8 99.5,498.8 99.5,497.5 97.5,497.5 97.5,499.5     98.8,499.5 98.8,500.5 97.5,500.5 97.5,502.5 99.5,502.5 99.5,501.2 100.5,501.2 100.5,502.5 102.5,502.5 102.5,500.5     101.2,500.5 101.2,499.5   "/>
		<polygon class="st1" points="182.5,499.5 182.5,497.5 180.5,497.5 180.5,498.8 179.5,498.8 179.5,497.5 177.5,497.5 177.5,499.5     178.8,499.5 178.8,500.5 177.5,500.5 177.5,502.5 179.5,502.5 179.5,501.2 180.5,501.2 180.5,502.5 182.5,502.5 182.5,500.5     181.2,500.5 181.2,499.5   "/>
		<polygon class="st1" points="222.5,499.5 222.5,497.5 220.5,497.5 220.5,498.8 219.5,498.8 219.5,497.5 217.5,497.5 217.5,499.5     218.8,499.5 218.8,500.5 217.5,500.5 217.5,502.5 219.5,502.5 219.5,501.2 220.5,501.2 220.5,502.5 222.5,502.5 222.5,500.5     221.2,500.5 221.2,499.5   "/>
		<polygon class="st1" points="262.5,499.5 262.5,497.5 260.5,497.5 260.5,498.8 259.5,498.8 259.5,497.5 257.5,497.5 257.5,499.5     258.8,499.5 258.8,500.5 257.5,500.5 257.5,502.5 259.5,502.5 259.5,501.2 260.5,501.2 260.5,502.5 262.5,502.5 262.5,500.5     261.2,500.5 261.2,499.5   "/>
		<polygon class="st1" points="302.5,499.5 302.5,497.5 300.5,497.5 300.5,498.8 299.5,498.8 299.5,497.5 297.5,497.5 297.5,499.5     298.8,499.5 298.8,500.5 297.5,500.5 297.5,502.5 299.5,502.5 299.5,501.2 300.5,501.2 300.5,502.5 302.5,502.5 302.5,500.5     301.2,500.5 301.2,499.5   "/>
		<polygon class="st1" points="342.5,499.5 342.5,497.5 340.5,497.5 340.5,498.8 339.5,498.8 339.5,497.5 337.5,497.5 337.5,499.5     338.8,499.5 338.8,500.5 337.5,500.5 337.5,502.5 339.5,502.5 339.5,501.2 340.5,501.2 340.5,502.5 342.5,502.5 342.5,500.5     341.2,500.5 341.2,499.5   "/>
		<polygon class="st1" points="382.5,499.5 382.5,497.5 380.5,497.5 380.5,498.8 379.5,498.8 379.5,497.5 377.5,497.5 377.5,499.5     378.8,499.5 378.8,500.5 377.5,500.5 377.5,502.5 379.5,502.5 379.5,501.2 380.5,501.2 380.5,502.5 382.5,502.5 382.5,500.5     381.2,500.5 381.2,499.5   "/>
		<polygon class="st1" points="422.5,499.5 422.5,497.5 420.5,497.5 420.5,498.8 419.5,498.8 419.5,497.5 417.5,497.5 417.5,499.5     418.8,499.5 418.8,500.5 417.5,500.5 417.5,502.5 419.5,502.5 419.5,501.2 420.5,501.2 420.5,502.5 422.5,502.5 422.5,500.5     421.2,500.5 421.2,499.5   "/>
		<polygon class="st1" points="462.5,499.5 462.5,497.5 460.5,497.5 460.5,498.8 459.5,498.8 459.5,497.5 457.5,497.5 457.5,499.5     458.8,499.5 458.8,500.5 457.5,500.5 457.5,502.5 459.5,502.5 459.5,501.2 460.5,501.2 460.5,502.5 462.5,502.5 462.5,500.5     461.2,500.5 461.2,499.5   "/>
		<polygon class="st1" points="102.5,539.5 102.5,537.5 100.5,537.5 100.5,538.8 99.5,538.8 99.5,537.5 97.5,537.5 97.5,539.5     98.8,539.5 98.8,540.5 97.5,540.5 97.5,542.5 99.5,542.5 99.5,541.2 100.5,541.2 100.5,542.5 102.5,542.5 102.5,540.5     101.2,540.5 101.2,539.5   "/>
		<polygon class="st1" points="262.5,539.5 262.5,537.5 260.5,537.5 260.5,538.8 259.5,538.8 259.5,537.5 257.5,537.5 257.5,539.5     258.8,539.5 258.8,540.5 257.5,540.5 257.5,542.5 259.5,542.5 259.5,541.2 260.5,541.2 260.5,542.5 262.5,542.5 262.5,540.5     261.2,540.5 261.2,539.5   "/>
		<polygon class="st1" points="342.5,539.5 342.5,537.5 340.5,537.5 340.5,538.8 339.5,538.8 339.5,537.5 337.5,537.5 337.5,539.5     338.8,539.5 338.8,540.5 337.5,540.5 337.5,542.5 339.5,542.5 339.5,541.2 340.5,541.2 340.5,542.5 342.5,542.5 342.5,540.5     341.2,540.5 341.2,539.5   "/>
		<polygon class="st1" points="502.5,59.5 502.5,57.5 500.5,57.5 500.5,58.8 499.5,58.8 499.5,57.5 497.5,57.5 497.5,59.5     498.8,59.5 498.8,60.5 497.5,60.5 497.5,62.5 499.5,62.5 499.5,61.2 500.5,61.2 500.5,62.5 502.5,62.5 502.5,60.5 501.2,60.5     501.2,59.5   "/>
		<polygon class="st1" points="542.5,59.5 542.5,57.5 540.5,57.5 540.5,58.8 539.5,58.8 539.5,57.5 537.5,57.5 537.5,59.5     538.8,59.5 538.8,60.5 537.5,60.5 537.5,62.5 539.5,62.5 539.5,61.2 540.5,61.2 540.5,62.5 542.5,62.5 542.5,60.5 541.2,60.5     541.2,59.5   "/>
		<polygon class="st1" points="482.5,79.5 482.5,77.5 480.5,77.5 480.5,78.8 479.5,78.8 479.5,77.5 477.5,77.5 477.5,79.5     478.8,79.5 478.8,80.5 477.5,80.5 477.5,82.5 479.5,82.5 479.5,81.2 480.5,81.2 480.5,82.5 482.5,82.5 482.5,80.5 481.2,80.5     481.2,79.5   "/>
		<polygon class="st1" points="522.5,79.5 522.5,77.5 520.5,77.5 520.5,78.8 519.5,78.8 519.5,77.5 517.5,77.5 517.5,79.5     518.8,79.5 518.8,80.5 517.5,80.5 517.5,82.5 519.5,82.5 519.5,81.2 520.5,81.2 520.5,82.5 522.5,82.5 522.5,80.5 521.2,80.5     521.2,79.5   "/>
		<polygon class="st1" points="482.5,119.5 482.5,117.5 480.5,117.5 480.5,118.8 479.5,118.8 479.5,117.5 477.5,117.5 477.5,119.5     478.8,119.5 478.8,120.5 477.5,120.5 477.5,122.5 479.5,122.5 479.5,121.2 480.5,121.2 480.5,122.5 482.5,122.5 482.5,120.5     481.2,120.5 481.2,119.5   "/>
		<polygon class="st1" points="482.5,159.5 482.5,157.5 480.5,157.5 480.5,158.8 479.5,158.8 479.5,157.5 477.5,157.5 477.5,159.5     478.8,159.5 478.8,160.5 477.5,160.5 477.5,162.5 479.5,162.5 479.5,161.2 480.5,161.2 480.5,162.5 482.5,162.5 482.5,160.5     481.2,160.5 481.2,159.5   "/>
		<polygon class="st1" points="522.5,159.5 522.5,157.5 520.5,157.5 520.5,158.8 519.5,158.8 519.5,157.5 517.5,157.5 517.5,159.5     518.8,159.5 518.8,160.5 517.5,160.5 517.5,162.5 519.5,162.5 519.5,161.2 520.5,161.2 520.5,162.5 522.5,162.5 522.5,160.5     521.2,160.5 521.2,159.5   "/>
		<polygon class="st1" points="482.5,199.5 482.5,197.5 480.5,197.5 480.5,198.8 479.5,198.8 479.5,197.5 477.5,197.5 477.5,199.5     478.8,199.5 478.8,200.5 477.5,200.5 477.5,202.5 479.5,202.5 479.5,201.2 480.5,201.2 480.5,202.5 482.5,202.5 482.5,200.5     481.2,200.5 481.2,199.5   "/>
		<polygon class="st1" points="522.5,199.5 522.5,197.5 520.5,197.5 520.5,198.8 519.5,198.8 519.5,197.5 517.5,197.5 517.5,199.5     518.8,199.5 518.8,200.5 517.5,200.5 517.5,202.5 519.5,202.5 519.5,201.2 520.5,201.2 520.5,202.5 522.5,202.5 522.5,200.5     521.2,200.5 521.2,199.5   "/>
		<polygon class="st1" points="482.5,239.5 482.5,237.5 480.5,237.5 480.5,238.8 479.5,238.8 479.5,237.5 477.5,237.5 477.5,239.5     478.8,239.5 478.8,240.5 477.5,240.5 477.5,242.5 479.5,242.5 479.5,241.2 480.5,241.2 480.5,242.5 482.5,242.5 482.5,240.5     481.2,240.5 481.2,239.5   "/>
		<polygon class="st1" points="522.5,239.5 522.5,237.5 520.5,237.5 520.5,238.8 519.5,238.8 519.5,237.5 517.5,237.5 517.5,239.5     518.8,239.5 518.8,240.5 517.5,240.5 517.5,242.5 519.5,242.5 519.5,241.2 520.5,241.2 520.5,242.5 522.5,242.5 522.5,240.5     521.2,240.5 521.2,239.5   "/>
		<polygon class="st1" points="482.5,279.5 482.5,277.5 480.5,277.5 480.5,278.8 479.5,278.8 479.5,277.5 477.5,277.5 477.5,279.5     478.8,279.5 478.8,280.5 477.5,280.5 477.5,282.5 479.5,282.5 479.5,281.2 480.5,281.2 480.5,282.5 482.5,282.5 482.5,280.5     481.2,280.5 481.2,279.5   "/>
		<polygon class="st1" points="522.5,279.5 522.5,277.5 520.5,277.5 520.5,278.8 519.5,278.8 519.5,277.5 517.5,277.5 517.5,279.5     518.8,279.5 518.8,280.5 517.5,280.5 517.5,282.5 519.5,282.5 519.5,281.2 520.5,281.2 520.5,282.5 522.5,282.5 522.5,280.5     521.2,280.5 521.2,279.5   "/>
		<polygon class="st1" points="482.5,319.5 482.5,317.5 480.5,317.5 480.5,318.8 479.5,318.8 479.5,317.5 477.5,317.5 477.5,319.5     478.8,319.5 478.8,320.5 477.5,320.5 477.5,322.5 479.5,322.5 479.5,321.2 480.5,321.2 480.5,322.5 482.5,322.5 482.5,320.5     481.2,320.5 481.2,319.5   "/>
		<polygon class="st1" points="482.5,359.5 482.5,357.5 480.5,357.5 480.5,358.8 479.5,358.8 479.5,357.5 477.5,357.5 477.5,359.5     478.8,359.5 478.8,360.5 477.5,360.5 477.5,362.5 479.5,362.5 479.5,361.2 480.5,361.2 480.5,362.5 482.5,362.5 482.5,360.5     481.2,360.5 481.2,359.5   "/>
		<polygon class="st1" points="522.5,359.5 522.5,357.5 520.5,357.5 520.5,358.8 519.5,358.8 519.5,357.5 517.5,357.5 517.5,359.5     518.8,359.5 518.8,360.5 517.5,360.5 517.5,362.5 519.5,362.5 519.5,361.2 520.5,361.2 520.5,362.5 522.5,362.5 522.5,360.5     521.2,360.5 521.2,359.5   "/>
		<polygon class="st1" points="522.5,399.5 522.5,397.5 520.5,397.5 520.5,398.8 519.5,398.8 519.5,397.5 517.5,397.5 517.5,399.5     518.8,399.5 518.8,400.5 517.5,400.5 517.5,402.5 519.5,402.5 519.5,401.2 520.5,401.2 520.5,402.5 522.5,402.5 522.5,400.5     521.2,400.5 521.2,399.5   "/>
		<polygon class="st1" points="522.5,439.5 522.5,437.5 520.5,437.5 520.5,438.8 519.5,438.8 519.5,437.5 517.5,437.5 517.5,439.5     518.8,439.5 518.8,440.5 517.5,440.5 517.5,442.5 519.5,442.5 519.5,441.2 520.5,441.2 520.5,442.5 522.5,442.5 522.5,440.5     521.2,440.5 521.2,439.5   "/>
		<polygon class="st1" points="502.5,99.5 502.5,97.5 500.5,97.5 500.5,98.8 499.5,98.8 499.5,97.5 497.5,97.5 497.5,99.5     498.8,99.5 498.8,100.5 497.5,100.5 497.5,102.5 499.5,102.5 499.5,101.2 500.5,101.2 500.5,102.5 502.5,102.5 502.5,100.5     501.2,100.5 501.2,99.5   "/>
		<polygon class="st1" points="502.5,139.5 502.5,137.5 500.5,137.5 500.5,138.8 499.5,138.8 499.5,137.5 497.5,137.5 497.5,139.5     498.8,139.5 498.8,140.5 497.5,140.5 497.5,142.5 499.5,142.5 499.5,141.2 500.5,141.2 500.5,142.5 502.5,142.5 502.5,140.5     501.2,140.5 501.2,139.5   "/>
		<polygon class="st1" points="502.5,179.5 502.5,177.5 500.5,177.5 500.5,178.8 499.5,178.8 499.5,177.5 497.5,177.5 497.5,179.5     498.8,179.5 498.8,180.5 497.5,180.5 497.5,182.5 499.5,182.5 499.5,181.2 500.5,181.2 500.5,182.5 502.5,182.5 502.5,180.5     501.2,180.5 501.2,179.5   "/>
		<polygon class="st1" points="542.5,179.5 542.5,177.5 540.5,177.5 540.5,178.8 539.5,178.8 539.5,177.5 537.5,177.5 537.5,179.5     538.8,179.5 538.8,180.5 537.5,180.5 537.5,182.5 539.5,182.5 539.5,181.2 540.5,181.2 540.5,182.5 542.5,182.5 542.5,180.5     541.2,180.5 541.2,179.5   "/>
		<polygon class="st1" points="502.5,219.5 502.5,217.5 500.5,217.5 500.5,218.8 499.5,218.8 499.5,217.5 497.5,217.5 497.5,219.5     498.8,219.5 498.8,220.5 497.5,220.5 497.5,222.5 499.5,222.5 499.5,221.2 500.5,221.2 500.5,222.5 502.5,222.5 502.5,220.5     501.2,220.5 501.2,219.5   "/>
		<polygon class="st1" points="502.5,259.5 502.5,257.5 500.5,257.5 500.5,258.8 499.5,258.8 499.5,257.5 497.5,257.5 497.5,259.5     498.8,259.5 498.8,260.5 497.5,260.5 497.5,262.5 499.5,262.5 499.5,261.2 500.5,261.2 500.5,262.5 502.5,262.5 502.5,260.5     501.2,260.5 501.2,259.5   "/>
		<polygon class="st1" points="542.5,259.5 542.5,257.5 540.5,257.5 540.5,258.8 539.5,258.8 539.5,257.5 537.5,257.5 537.5,259.5     538.8,259.5 538.8,260.5 537.5,260.5 537.5,262.5 539.5,262.5 539.5,261.2 540.5,261.2 540.5,262.5 542.5,262.5 542.5,260.5     541.2,260.5 541.2,259.5   "/>
		<polygon class="st1" points="502.5,299.5 502.5,297.5 500.5,297.5 500.5,298.8 499.5,298.8 499.5,297.5 497.5,297.5 497.5,299.5     498.8,299.5 498.8,300.5 497.5,300.5 497.5,302.5 499.5,302.5 499.5,301.2 500.5,301.2 500.5,302.5 502.5,302.5 502.5,300.5     501.2,300.5 501.2,299.5   "/>
		<polygon class="st1" points="502.5,339.5 502.5,337.5 500.5,337.5 500.5,338.8 499.5,338.8 499.5,337.5 497.5,337.5 497.5,339.5     498.8,339.5 498.8,340.5 497.5,340.5 497.5,342.5 499.5,342.5 499.5,341.2 500.5,341.2 500.5,342.5 502.5,342.5 502.5,340.5     501.2,340.5 501.2,339.5   "/>
		<polygon class="st1" points="502.5,379.5 502.5,377.5 500.5,377.5 500.5,378.8 499.5,378.8 499.5,377.5 497.5,377.5 497.5,379.5     498.8,379.5 498.8,380.5 497.5,380.5 497.5,382.5 499.5,382.5 499.5,381.2 500.5,381.2 500.5,382.5 502.5,382.5 502.5,380.5     501.2,380.5 501.2,379.5   "/>
		<polygon class="st1" points="542.5,379.5 542.5,377.5 540.5,377.5 540.5,378.8 539.5,378.8 539.5,377.5 537.5,377.5 537.5,379.5     538.8,379.5 538.8,380.5 537.5,380.5 537.5,382.5 539.5,382.5 539.5,381.2 540.5,381.2 540.5,382.5 542.5,382.5 542.5,380.5     541.2,380.5 541.2,379.5   "/>
		<polygon class="st1" points="542.5,419.5 542.5,417.5 540.5,417.5 540.5,418.8 539.5,418.8 539.5,417.5 537.5,417.5 537.5,419.5     538.8,419.5 538.8,420.5 537.5,420.5 537.5,422.5 539.5,422.5 539.5,421.2 540.5,421.2 540.5,422.5 542.5,422.5 542.5,420.5     541.2,420.5 541.2,419.5   "/>
		<polygon class="st1" points="482.5,479.5 482.5,477.5 480.5,477.5 480.5,478.8 479.5,478.8 479.5,477.5 477.5,477.5 477.5,479.5     478.8,479.5 478.8,480.5 477.5,480.5 477.5,482.5 479.5,482.5 479.5,481.2 480.5,481.2 480.5,482.5 482.5,482.5 482.5,480.5     481.2,480.5 481.2,479.5   "/>
		<polygon class="st1" points="482.5,519.5 482.5,517.5 480.5,517.5 480.5,518.8 479.5,518.8 479.5,517.5 477.5,517.5 477.5,519.5     478.8,519.5 478.8,520.5 477.5,520.5 477.5,522.5 479.5,522.5 479.5,521.2 480.5,521.2 480.5,522.5 482.5,522.5 482.5,520.5     481.2,520.5 481.2,519.5   "/>
		<polygon class="st1" points="522.5,519.5 522.5,517.5 520.5,517.5 520.5,518.8 519.5,518.8 519.5,517.5 517.5,517.5 517.5,519.5     518.8,519.5 518.8,520.5 517.5,520.5 517.5,522.5 519.5,522.5 519.5,521.2 520.5,521.2 520.5,522.5 522.5,522.5 522.5,520.5     521.2,520.5 521.2,519.5   "/>
		<polygon class="st1" points="502.5,499.5 502.5,497.5 500.5,497.5 500.5,498.8 499.5,498.8 499.5,497.5 497.5,497.5 497.5,499.5     498.8,499.5 498.8,500.5 497.5,500.5 497.5,502.5 499.5,502.5 499.5,501.2 500.5,501.2 500.5,502.5 502.5,502.5 502.5,500.5     501.2,500.5 501.2,499.5   "/>
		<polygon class="st1" points="542.5,499.5 542.5,497.5 540.5,497.5 540.5,498.8 539.5,498.8 539.5,497.5 537.5,497.5 537.5,499.5     538.8,499.5 538.8,500.5 537.5,500.5 537.5,502.5 539.5,502.5 539.5,501.2 540.5,501.2 540.5,502.5 542.5,502.5 542.5,500.5     541.2,500.5 541.2,499.5   "/>
	</g>
</g>
<g id="Layer_1">
	<g>
		<path class="st1" d="M471.1,400H128.9c-16,0-28.9,12.9-28.9,28.9v2.2c0,16,12.9,28.9,28.9,28.9h342.2c16,0,28.9-12.9,28.9-28.9    v-2.2C500,412.9,487.1,400,471.1,400z"/>
		<g>
			<rect x="210" y="190" class="st2" width="50" height="240"/>
			<path class="st3" d="M235,360L235,360c-8.3,0-15-6.7-15-15V235c0-8.3,6.7-15,15-15h0c8.3,0,15,6.7,15,15v110     C250,353.3,243.3,360,235,360z"/>
			<polygon class="st4" points="260,430 210,430 260,380    "/>
			<g>
				<path class="st3" d="M235,380c-8.3,0-15,6.7-15,15c0,6.8,4.5,12.5,10.6,14.4l18.7-18.7C247.5,384.5,241.8,380,235,380z"/>
				<path class="st5" d="M250,395c0-1.5-0.2-3-0.6-4.4l-18.7,18.7c1.4,0.4,2.8,0.6,4.4,0.6C243.3,410,250,403.3,250,395z"/>
			</g>
		</g>
		<g>
			<rect x="360" y="140" class="st6" width="30" height="290"/>
			<path class="st7" d="M375,410L375,410c-2.8,0-5-2.2-5-5V255c0-2.8,2.2-5,5-5l0,0c2.8,0,5,2.2,5,5v150     C380,407.8,377.8,410,375,410z"/>
			<path class="st7" d="M375,230L375,230c-2.8,0-5-2.2-5-5v-50c0-2.8,2.2-5,5-5l0,0c2.8,0,5,2.2,5,5v50C380,227.8,377.8,230,375,230     z"/>
			<polygon class="st8" points="390,430 360,430 390,400    "/>
		</g>
		<polygon class="st9" points="460,400 460,430 140,430 150,440 460,440 470,440 470,430 470,400   "/>
		<g>
			<rect x="140" y="140" class="st7" width="70" height="290"/>
			<rect x="140" y="150" class="st6" width="70" height="10"/>
			<rect x="140" y="410" class="st6" width="70" height="10"/>
			<path class="st6" d="M185,390h-20c-2.8,0-5-2.2-5-5l0,0c0-2.8,2.2-5,5-5h20c2.8,0,5,2.2,5,5l0,0C190,387.8,187.8,390,185,390z"/>
			<path class="st6" d="M185,190h-20c-2.8,0-5-2.2-5-5l0,0c0-2.8,2.2-5,5-5h20c2.8,0,5,2.2,5,5l0,0C190,187.8,187.8,190,185,190z"/>
			<path class="st6" d="M195,210h-40c-2.8,0-5-2.2-5-5l0,0c0-2.8,2.2-5,5-5h40c2.8,0,5,2.2,5,5l0,0C200,207.8,197.8,210,195,210z"/>
			<g>
				<polygon class="st10" points="140,430 210,430 210,420 150,420     "/>
				<path class="st10" d="M188.5,381.5c0.9,0.9,1.5,2.2,1.5,3.5c0,2.8-2.2,5-5,5h-5l-20,20h50v-50L188.5,381.5z"/>
				<polygon class="st8" points="150,420 210,420 210,410 160,410     "/>
				<path class="st8" d="M190,385c0-1.4-0.6-2.6-1.5-3.5L180,390h5C187.8,390,190,387.8,190,385z"/>
			</g>
		</g>
		<g>
			<rect x="390" y="160" class="st3" width="70" height="270"/>
			<rect x="390" y="170" class="st2" width="70" height="10"/>
			<path class="st2" d="M435,210h-20c-2.8,0-5-2.2-5-5l0,0c0-2.8,2.2-5,5-5h20c2.8,0,5,2.2,5,5l0,0C440,207.8,437.8,210,435,210z"/>
			<path class="st2" d="M445,230h-40c-2.8,0-5-2.2-5-5l0,0c0-2.8,2.2-5,5-5h40c2.8,0,5,2.2,5,5l0,0C450,227.8,447.8,230,445,230z"/>
			<g>
				<polygon class="st5" points="390,430 460,430 460,420 400,420     "/>
				<path class="st5" d="M438.5,381.5c0.9,0.9,1.5,2.2,1.5,3.5c0,2.8-2.2,5-5,5h-5l-20,20h50v-50L438.5,381.5z"/>
				<polygon class="st2" points="390,410 390,420 400,420 410,410     "/>
				<polygon class="st4" points="400,420 460,420 460,410 410,410     "/>
				<path class="st2" d="M435,380h-20c-2.8,0-5,2.2-5,5s2.2,5,5,5h15l8.5-8.5C437.6,380.6,436.4,380,435,380z"/>
				<path class="st4" d="M440,385c0-1.4-0.6-2.6-1.5-3.5L430,390h5C437.8,390,440,387.8,440,385z"/>
			</g>
		</g>
		<g>
			<rect x="260" y="210" class="st7" width="100" height="220"/>
			<rect x="260" y="220" class="st6" width="100" height="10"/>
			<rect x="260" y="410" class="st6" width="100" height="10"/>
			<circle class="st6" cx="310" cy="290" r="30"/>
			<path class="st6" d="M335,340h-50c-2.8,0-5-2.2-5-5l0,0c0-2.8,2.2-5,5-5h50c2.8,0,5,2.2,5,5l0,0C340,337.8,337.8,340,335,340z"/>
			<path class="st6" d="M345,360h-70c-2.8,0-5-2.2-5-5l0,0c0-2.8,2.2-5,5-5h70c2.8,0,5,2.2,5,5l0,0C350,357.8,347.8,360,345,360z"/>
			<polygon class="st3" points="330,210 350,210 350,290 340,280 330,290    "/>
			<g>
				<polygon class="st6" points="260,410 260,420 270,420 280,410     "/>
			</g>
			<polygon class="st8" points="270,420 360,420 360,410 280,410    "/>
			<polygon class="st10" points="260,430 360,430 360,420 270,420    "/>
			<path class="st10" d="M340,350h5c2.8,0,5,2.2,5,5s-2.2,5-5,5h-15l-50,50h80v-80L340,350z"/>
			<path class="st6" d="M275,350c-2.8,0-5,2.2-5,5s2.2,5,5,5h55l10-10H275z"/>
			<path class="st8" d="M350,355c0-2.8-2.2-5-5-5h-5l-10,10h15C347.8,360,350,357.8,350,355z"/>
		</g>
	</g>
</g>
<g id="Layer_6" class="st11">
	<g class="st12">
		<rect x="160" y="120" class="st13" width="360" height="360"/>
		<rect x="180" y="100" class="st13" width="320" height="400"/>
		<rect x="180" y="100" transform="matrix(6.123234e-17 -1 1 6.123234e-17 40 640)" class="st13" width="320" height="400"/>
		<circle class="st13" cx="340" cy="300" r="200"/>
	</g>
	<g class="st12">
		<rect x="-3040" y="120" class="st13" width="360" height="360"/>
		<rect x="-3020" y="100" class="st13" width="320" height="400"/>
		<rect x="-3020" y="100" transform="matrix(6.123234e-17 -1 1 6.123234e-17 -3160 -2560)" class="st13" width="320" height="400"/>
		<circle class="st13" cx="-2860" cy="300" r="200"/>
	</g>
	<g class="st12">
		<rect x="-2240" y="120" class="st13" width="360" height="360"/>
		<rect x="-2220" y="100" class="st13" width="320" height="400"/>
		<rect x="-2220" y="100" transform="matrix(6.123234e-17 -1 1 6.123234e-17 -2360 -1760)" class="st13" width="320" height="400"/>
		<circle class="st13" cx="-2060" cy="300" r="200"/>
	</g>
	<g class="st12">
		<rect x="-1440" y="120" class="st13" width="360" height="360"/>
		<rect x="-1420" y="100" class="st13" width="320" height="400"/>
		<rect x="-1420" y="100" transform="matrix(6.123234e-17 -1 1 6.123234e-17 -1560 -960)" class="st13" width="320" height="400"/>
		<circle class="st13" cx="-1260" cy="300" r="200"/>
	</g>
	<g class="st12">
		<rect x="-640" y="120" class="st13" width="360" height="360"/>
		<rect x="-620" y="100" class="st13" width="320" height="400"/>
		<rect x="-620" y="100" transform="matrix(6.123234e-17 -1 1 6.123234e-17 -760 -160)" class="st13" width="320" height="400"/>
		<circle class="st13" cx="-460" cy="300" r="200"/>
	</g>
	<g class="st12">
		<rect x="160" y="120" class="st13" width="360" height="360"/>
		<rect x="180" y="100" class="st13" width="320" height="400"/>
		<rect x="180" y="100" transform="matrix(6.123234e-17 -1 1 6.123234e-17 40 640)" class="st13" width="320" height="400"/>
		<circle class="st13" cx="340" cy="300" r="200"/>
	</g>
	<g class="st12">
		<rect x="960" y="120" class="st13" width="360" height="360"/>
		<rect x="980" y="100" class="st13" width="320" height="400"/>
		<rect x="980" y="100" transform="matrix(6.123234e-17 -1 1 6.123234e-17 840 1440)" class="st13" width="320" height="400"/>
		<circle class="st13" cx="1140" cy="300" r="200"/>
	</g>
	<g class="st12">
		<rect x="1760" y="120" class="st13" width="360" height="360"/>
		<rect x="1780" y="100" class="st13" width="320" height="400"/>
		<rect x="1780" y="100" transform="matrix(6.123234e-17 -1 1 6.123234e-17 1640 2240)" class="st13" width="320" height="400"/>
		<circle class="st13" cx="1940" cy="300" r="200"/>
	</g>
	<g class="st12">
		<rect x="1760" y="917.9" class="st13" width="360" height="360"/>
		<rect x="1780" y="897.9" class="st13" width="320" height="400"/>
		
			<rect x="1780" y="897.9" transform="matrix(6.123234e-17 -1 1 6.123234e-17 842.0566 3037.9434)" class="st13" width="320" height="400"/>
		<circle class="st13" cx="1940" cy="1097.9" r="200"/>
	</g>
	<g class="st12">
		<rect x="2560" y="120" class="st13" width="360" height="360"/>
		<rect x="2580" y="100" class="st13" width="320" height="400"/>
		<rect x="2580" y="100" transform="matrix(6.123234e-17 -1 1 6.123234e-17 2440 3040)" class="st13" width="320" height="400"/>
		<circle class="st13" cx="2740" cy="300" r="200"/>
	</g>
	<g class="st12">
		<rect x="5760" y="920" class="st13" width="360" height="360"/>
		<rect x="5780" y="900" class="st13" width="320" height="400"/>
		<rect x="5780" y="900" transform="matrix(6.123234e-17 -1 1 6.123234e-17 4840 7040)" class="st13" width="320" height="400"/>
		<circle class="st13" cx="5940" cy="1100" r="200"/>
	</g>
	<g class="st12">
		<rect x="4960" y="920" class="st13" width="360" height="360"/>
		<rect x="4980" y="900" class="st13" width="320" height="400"/>
		<rect x="4980" y="900" transform="matrix(6.123234e-17 -1 1 6.123234e-17 4040 6240)" class="st13" width="320" height="400"/>
		<circle class="st13" cx="5140" cy="1100" r="200"/>
	</g>
	<g class="st12">
		<rect x="4160" y="920" class="st13" width="360" height="360"/>
		<rect x="4180" y="900" class="st13" width="320" height="400"/>
		<rect x="4180" y="900" transform="matrix(6.123234e-17 -1 1 6.123234e-17 3240 5440)" class="st13" width="320" height="400"/>
		<circle class="st13" cx="4340" cy="1100" r="200"/>
	</g>
	<g class="st12">
		<rect x="3360" y="920" class="st13" width="360" height="360"/>
		<rect x="3380" y="900" class="st13" width="320" height="400"/>
		<rect x="3380" y="900" transform="matrix(6.123234e-17 -1 1 6.123234e-17 2440 4640)" class="st13" width="320" height="400"/>
		<circle class="st13" cx="3540" cy="1100" r="200"/>
	</g>
	<g class="st12">
		<rect x="6560" y="920" class="st13" width="360" height="360"/>
		<rect x="6580" y="900" class="st13" width="320" height="400"/>
		<rect x="6580" y="900" transform="matrix(6.123234e-17 -1 1 6.123234e-17 5640 7840)" class="st13" width="320" height="400"/>
		<circle class="st13" cx="6740" cy="1100" r="200"/>
	</g>
	<g class="st12">
		<rect x="6560" y="120" class="st13" width="360" height="360"/>
		<rect x="6580" y="100" class="st13" width="320" height="400"/>
		<rect x="6580" y="100" transform="matrix(6.123234e-17 -1 1 6.123234e-17 6440 7040)" class="st13" width="320" height="400"/>
		<circle class="st13" cx="6740" cy="300" r="200"/>
	</g>
	<g class="st12">
		<rect x="5760" y="120" class="st13" width="360" height="360"/>
		<rect x="5780" y="100" class="st13" width="320" height="400"/>
		<rect x="5780" y="100" transform="matrix(6.123234e-17 -1 1 6.123234e-17 5640 6240)" class="st13" width="320" height="400"/>
		<circle class="st13" cx="5940" cy="300" r="200"/>
	</g>
	<g class="st12">
		<rect x="4960" y="120" class="st13" width="360" height="360"/>
		<rect x="4980" y="100" class="st13" width="320" height="400"/>
		<rect x="4980" y="100" transform="matrix(6.123234e-17 -1 1 6.123234e-17 4840 5440)" class="st13" width="320" height="400"/>
		<circle class="st13" cx="5140" cy="300" r="200"/>
	</g>
	<g class="st12">
		<rect x="4160" y="120" class="st13" width="360" height="360"/>
		<rect x="4180" y="100" class="st13" width="320" height="400"/>
		<rect x="4180" y="100" transform="matrix(6.123234e-17 -1 1 6.123234e-17 4040 4640)" class="st13" width="320" height="400"/>
		<circle class="st13" cx="4340" cy="300" r="200"/>
	</g>
	<g class="st12">
		<rect x="3360" y="120" class="st13" width="360" height="360"/>
		<rect x="3380" y="100" class="st13" width="320" height="400"/>
		<rect x="3380" y="100" transform="matrix(6.123234e-17 -1 1 6.123234e-17 3240 3840)" class="st13" width="320" height="400"/>
		<circle class="st13" cx="3540" cy="300" r="200"/>
	</g>
</g>
</svg>
